<?xml version="1.0" encoding="UTF-8"?>
<svg version="1.1" viewBox="0 0 2048 1260" width="1280" height="1280" xmlns="http://www.w3.org/2000/svg">
<path transform="translate(1020,3)" d="m0 0 7 1 28 17 21 13 9-2 40-13 15-5 5 1 10 8 17 13 20 15 12-3 41-12 13-3 9 11 13 17 10 13 3 5h10l65-6 2 1 11 26 11 25 57 2 15 1 8 20 10 27 3 7 69 13 4 1 1 2v52l9 3 43 12 21 7 414 1v95l-1 1-367 1-11 38 1 5 3 2 362 1 13 1v96l-287 1h-56l12 12 8 7 8 8 7 6 1 5-4 5-1 3h312v96l-1 1h-161l-152 1-11 9-16 15-6 5h-2v2l7-1h80l257 1v95l-1 1h-369l4 15 7 31 358 1 1 1v95l-1 1-408 1-2 2-26 1-6 28-21 91-12 53-2 4-33 1-16 2-1 88-18 7-29 10-27 10h-3v-53l-11-3-57-19-8-3-5-22h-63l-10 13-14 19-8 10-49-14-27-7-2 4-42 42-7-1-50-25-5 1-17 12-16 11-17 12-3 2-5-1-24-16-15-11-12-8-8-5-10 4-29 14-18 8-5 1-16-15-8-7-14-13-8-7-1-1-8 1-53 18-11 3-12-19-9-15-10-17-11 1-45 7-3 1-4 21-3 3-72 24h-2v53l-9-2-30-11-31-11-6-3-1-1v-87l-20-4-23-2-2-3-9-35-12-44-20-75-3-11-5-4-13-6-5-1-419-1-1-1v-95l1-1h360l3-10 11-29 3-8h-377l-1-1v-95l340-1 6 1-4-5-8-7-11-11-8-7-1-1-147-1h-160l-1-1v-96h305l-4-7-1-4 14-13 11-9 14-13h-45l-294-1v-96l2-1h366l-6-36-1-11h-361v-96l423-1 12-3 40-14 2-1 1-60 81-1 11-35 9-27 1-1 63-1 10-18 9-16 10-17 70-1 3-1 2-4 14-17 11-14 8-10 7 1 47 14 15 5 5-2 13-10 14-11 13-10 5-4h2v-2l6 1 35 18 9 5 6-1 23-13 24-13z" fill="#321E13"/>
<path transform="translate(989,312)" d="m0 0h50v2h12l15 2 12 3 9 3 20 9 6 3 9 6 10 7v2l4 2 10 10 6 7v2h2l6 9v3h2l9 19 6 18 4 16v5l11-4 20-5 22-3h28l20 3 23 8 16 10 10 8 7 6 3 4v2l3 1 1 4h2l10 16 6 12 4 12 1 18-1 17-6 20-8 16-10 13-7 7-16 11-14 7-14 5-8 3-12 2-2 1-24 3-5 2-18 36-6 15-5 10-11 29-5 18-4 14-5 29-2 15v11l4-14 12-25 11-18 8-11 9-11 14-14 14-11 6-3h14v7l-4 9-10 14-10 15-11 19-13 25-9 25-9 28v3l13-10 11-9 8-7 10-6 8-4-2-5-3-10-1-7v-13l3-17 6-16 9-17 12-17 10-13 13-19 7-9 12-12 14-11 1 2-12 31v3l7-9 20-26 13-17 4-2 9 4 1 6h3l2-4 11-13 15-20 8-10 9 3 5 4 12-15 11-14 6-7 9 3 3 5v2l6-5 10-14 8-9 6-1 9 2 13-17 6-6 9 1 4 4 1 6-3 13 14-8 18-7 13-5h7l9 6 2 3-8 8-9 15-9 14-9 11-1 2h15l5 5-1 8-4 5-20 11 2 5v6l-4 6-14 8-11 6h-2l6 7v8l-5 5-24 12-13 7h-2l6 12 1 4-3 3-23 11-19 9-12 7 5 3 3 5v8l-9 6-39 20-15 7h-4v2h10l5 5 1 2v6l-5 6-24 13-26 13-22 8-9 2-15 1-16-3-13-5-8-5-4 1-15 16-7 7-7 8-14 13-8 7-8 8-8 7-7 7-8 7-8 8-7 8-10 10h358l9 1h72l2-4h2l-1 10-13 56-24 105-2 4-33 1-16 2-1 88-18 7-29 10-27 10h-3v-53l-11-3-57-19-8-3-5-22h-63l-10 13-14 19-8 10-49-14-27-7-2 4-42 42-7-1-50-25-5 1-17 12-16 11-17 12-3 2-5-1-24-16-15-11-12-8-8-5-10 4-29 14-18 8-5 1-16-15-8-7-14-13-8-7-1-1-8 1-53 18-11 3-12-19-9-15-10-17-11 1-45 7-3 1-4 21-3 3-72 24h-2v53l-9-2-30-11-31-11-6-3-1-1v-87l-20-4-23-2-2-3-9-35-12-44-20-75-3-13 83-1 2-1-2-3 4 2 1 1 281 1 64 1-2-4-8-7-26-24-17-17-8-7-12-11-8-7-8-8-7-8-18-18-7 4-12 6-12 3h-21l-16-4-16-6-48-24-7-8 1-9 5-4 6-1h3l-16-7-44-22-6-4-1-5 3-7 5-6-16-8-39-19-1-5 5-9 3-3-6-2-19-10-17-9-3-4v-7l4-5h2l-4-4-21-11-6-5-1-5 2-9-19-11-5-6v-7l5-5 3-1h12l-7-8-10-14-6-11-7-10-5-6 1-4 6-4 4-2 5 1 27 10 20 10-3-8v-11l3-3 8-3 8 7 11 14 4 4 6-3 7 1 9 10 12 17h2l7-8 6-1 10 11 12 16 8 9 8-6 6-1 10 14 14 18 11 14v2h2l2-6 5-4 5-1 5 4 21 28 10 13 7 10 1-2-10-25-3-10 3 1v2l4 2 14 12 5 5 9 11 8 12 14 19 9 13 8 13 6 12 5 16 1 6v27l-4 12-3 4 9 3 11 6 15 13 9 7 8 6-2-9-12-36-8-19-10-19-11-18-8-12-13-19-3-12 2-1h13l10 6 10 9 8 7 7 7 9 11 12 17 13 25 9 23 4 14 3 14 4 27 2 15 3 5 15 12 14 10 7 8v10l-4 10 216 1h25l-1-4-3-9 1-7 7-8 19-14 11-9 2-4 5-40v-3l-11 8h-2v2h-3v2l-11 6-5 3-11 4-7 3-15 4-6 2-17 3-8 2-6 1-36 2h-38l-30-1-10-2-17-2-22-5-24-8-21-11-11-9-7-8-5-16-4-20-3-9-2-10-3-12-2-7-4-12-4-16-10-33-12-35-9-21-5-7-8-4-22-5-5-2-14-4-12-5-16-8v-2l-4-1-2-1v-2l-4-1v-2l-4-2-5-5-8-9-8-14-5-13-3-11v-32l3-19 6-16 6-10 2-3h2l2-5 7-6h2v-2l4-1v-2l10-6 16-6 16-4 14-2 14-1h14l64 4-1-6 2-16 8-20 8-14h2l2-5 5-7h2l2-5 4-4 7-8 6-4 4-4h2v-2l15-10 11-6 7-3 17-6 20-4z" fill="#654213"/>
<path transform="translate(1020,3)" d="m0 0 7 1 28 17 21 13 9-2 40-13 15-5 5 1 10 8 17 13 20 15 12-3 41-12 13-3 9 11 13 17 10 13 3 5h10l65-6 2 1 11 26 11 25 57 2 15 1 8 20 10 27 3 7 69 13 4 1 1 2v52l9 3 43 12 21 7 414 1v95l-1 1-367 1-11 38 1 5 3 2 362 1 13 1v96l-287 1h-56l12 12 8 7 8 8 7 6 1 5-4 5-1 3h312v96l-1 1h-161l-152 1-11 9-16 15-6 5h-2v2l7-1h80l257 1v95l-1 1h-369l4 15 7 31 358 1 1 1v95l-1 1-408 1-2 2-26 1-3 1-1 4-1 1h-72l-9-1 6-7 8-8 7-8 12-14 13-16 14-19 10-15 13-21 10-18 13-26 8-19 11-30 8-28 7-32 5-36 2-29v-30l-3-36-5-33-6-27-7-25-7-20-6-16-12-27-13-25-15-25-17-25-9-12-11-14-12-14-11-12-7-8-19-19-8-7-15-13-17-14-19-14-17-12-20-13-25-15-33-17-29-14-27-11-24-9-28-9-32-9-41-9-36-6-34-4-40-3h-76l-38 3-39 5-30 5-40 9-40 11-35 12-37 15-28 13-29 15-27 16-14 9-15 10-18 13-14 11-11 9-14 12-12 11-8 8-8 7-6 7h-2l-2 4-7 7-9 11-12 14-13 17-12 17-12 19-14 24-14 28-10 24-11 31-8 29-6 29-5 37-1 14v52l3 32 6 36 8 32 12 36 12 28 11 23 10 18 11 18 10 15 12 17 11 14 14 17 12 13 11 12 3 4-3 1-84 1-8-5-9-4-5-1-419-1-1-1v-95l1-1h360l3-10 11-29 3-8h-377l-1-1v-95l340-1 6 1-4-5-8-7-11-11-8-7-1-1-147-1h-160l-1-1v-96h305l-4-7-1-4 14-13 11-9 14-13h-45l-294-1v-96l2-1h366l-6-36-1-11h-361v-96l423-1 12-3 40-14 2-1 1-60 81-1 11-35 9-27 1-1 63-1 10-18 9-16 10-17 70-1 3-1 2-4 14-17 11-14 8-10 7 1 47 14 15 5 5-2 13-10 14-11 13-10 5-4h2v-2l6 1 35 18 9 5 6-1 23-13 24-13z" fill="#E69D18"/>
<path transform="translate(989,312)" d="m0 0h50v2h12l15 2 12 3 9 3 20 9 6 3 9 6 10 7v2l4 2 10 10 6 7v2h2l6 9v3h2l9 19 6 18 4 16v5l11-4 20-5 22-3h28l20 3 23 8 16 10 10 8 7 6 3 4v2l3 1 1 4h2l10 16 6 12 4 12 1 18-1 17-6 20-8 16-10 13-7 7-16 11-14 7-14 5-8 3-12 2-2 1-24 3-5 2-18 36-6 15-5 10-11 29-5 18-4 14-5 29-2 15-1 2-1 16-3 12-7 9-7 5h-2v2h-3v2l-11 6-5 3-11 4-7 3-15 4-6 2-17 3-8 2-6 1-36 2h-38l-30-1-10-2-17-2-22-5-24-8-21-11-11-9-7-8-5-16-4-20-3-9-2-10-3-12-2-7-4-12-4-16-10-33-12-35-9-21-5-7-8-4-22-5-5-2-14-4-12-5-16-8v-2l-4-1-2-1v-2l-4-1v-2l-4-2-5-5-8-9-8-14-5-13-3-11v-32l3-19 6-16 6-10 2-3h2l2-5 7-6h2v-2l4-1v-2l10-6 16-6 16-4 14-2 14-1h14l64 4-1-6 2-16 8-20 8-14h2l2-5 5-7h2l2-5 4-4 7-8 6-4 4-4h2v-2l15-10 11-6 7-3 17-6 20-4z" fill="#FCFCFC"/>
<path transform="translate(493,526)" d="m0 0 5 3 9 10 9 12 7-3 7 1 9 10 12 17h2l7-8 6-1 10 11 12 16 8 9 8-6 6-1 10 14 14 18 11 14v2h2l2-6 5-4 5-1 5 4 21 28 10 13 7 10 1-2-10-25-3-10 3 1v2l4 2 14 12 5 5 9 11 8 12 14 19 9 13 8 13 6 12 5 16 1 6v27l-4 12-3 4 9 3 11 6 15 13 9 7 8 6-2-9-12-36-8-19-10-19-11-18-8-12-13-19-3-12 2-1h13l10 6 10 9 8 7 7 7 9 11 12 17 13 25 9 23 4 14 3 14 4 27 2 15 3 5 15 12 14 10 7 8v10l-4 9-10 2-8-1-13-12-10-9-15-14-16-16-8-7-12-11-8-7-8-8-7-8-18-18-7 4-12 6-12 3h-21l-16-4-16-6-48-24-7-8 1-9 5-4 6-1h3l-16-7-44-22-6-4-1-5 3-7 5-6-16-8-39-19-1-5 5-9 3-3-6-2-19-10-17-9-3-4v-7l4-5h2l-4-4-21-11-6-5-1-5 2-9-19-11-5-6v-7l5-5 3-1h12l-7-8-10-14-6-11-7-10-5-6 1-4 6-4 4-2 5 1 27 10 20 10-3-8v-11l3-3z" fill="#AC7D4E"/>
<path transform="translate(1536,528)" d="m0 0 9 1 4 4 1 6-3 13 14-8 18-7 13-5h7l9 6 2 3-8 8-9 15-9 14-9 11-1 2h15l5 5-1 8-4 5-20 11 2 5v6l-4 6-14 8-11 6h-2l6 7v8l-5 5-24 12-13 7h-2l6 12 1 4-3 3-23 11-19 9-12 7 5 3 3 5v8l-9 6-39 20-15 7h-4v2h10l5 5 1 2v6l-5 6-24 13-26 13-22 8-9 2-15 1-16-3-13-5-8-5-4 1-15 16-7 7-7 8-14 13-8 7-8 8-8 7-7 7-8 7-9 9-8 7-10 10-6 4h-10l-5-3-4-9-1-8 4-6 8-7 16-12 10-8 2-4 5-40v-3h-3l5-6 3-12 1-16h1l1 9 4-14 12-25 11-18 8-11 9-11 14-14 14-11 6-3h14v7l-4 9-10 14-10 15-11 19-13 25-9 25-9 28v3l13-10 11-9 8-7 10-6 8-4-2-5-3-10-1-7v-13l3-17 6-16 9-17 12-17 10-13 13-19 7-9 12-12 14-11 1 2-12 31v3l7-9 20-26 13-17 4-2 9 4 1 6h3l2-4 11-13 15-20 8-10 9 3 5 4 12-15 11-14 6-7 9 3 3 5v2l6-5 10-14 8-9 6-1 9 2 13-17z" fill="#AC7D4E"/>
<path transform="translate(1627,273)" d="m0 0h419v95h-367v-8l-19-10-38-19-2-2 1-14 5-40z" fill="#654214"/>
<path transform="translate(0,833)" d="m0 0h360l-1 7 16 8 33 16 15 8-3 21-6 35h-414z" fill="#654213"/>
<path transform="translate(2038,832)" d="m0 0 3 1v95h-409l-2-4-5-27-4-24v-8l16-7 45-19 2-6z" fill="#654213"/>
<path transform="translate(402,273)" d="m0 0h23l-1 2-1 54-19 10-38 19v10h-359v-94z" fill="#644113"/>
<path transform="translate(0,689)" d="m0 0h349l3 3-1 6-13 24-10 18-4 7v3l26 14 24 14 6 4v2l-210 1h-169l-1-1z" fill="#654213"/>
<path transform="translate(1675,417)" d="m0 0h371v96l-287 1h-55v-2l-6-1 1-7 17-38 6-14-4-2-14-10-19-14-10-7z" fill="#654213"/>
<path transform="translate(1704,688)" d="m0 0h80l257 1v95l-1 1h-171l-198-1-1-4 17-12 20-14 13-9-1-5-24-44-1-6z" fill="#654214"/>
<path transform="translate(7,416)" d="m0 0h328l40 1-1 5-18 11-23 14-12 7h-2l8 16 14 24 9 16-1 2-8 2h-41l-294-1v-96z" fill="#664315"/>
<path transform="translate(1734,560)" d="m0 0h312v96l-1 1h-141l-169-1 3-5-1-5-10-13-13-17-8-10-1-5 7-11 10-14 8-12z" fill="#664314"/>
<path transform="translate(838,745)" d="m0 0 7 1 18 10 24 11 28 10 28 7 24 4 31 3h26l34-3 31-5 26-6 26-8 25-9 23-10 4-1 2-4 1 2-4 14-5 29-2 15-1 2-1 16-3 12-7 9-7 5h-2v2h-3v2l-11 6-5 3-11 4-7 3-15 4-6 2-17 3-8 2-6 1-36 2h-38l-30-1-10-2-17-2-22-5-24-8-21-11-11-9-7-8-5-16-4-20-3-9-2-10-3-12-2-7-2-5z" fill="#D4D6D8"/>
<path transform="translate(6,560)" d="m0 0h306l8 11 20 30-1 5-9 11-14 19-9 12 1 5 2 3-173 1h-130l-1-1z" fill="#664314"/>
<path transform="translate(696,1109)" d="m0 0h139l13 1 33 7 30 5 33 4 41 3h78l30-2 44-5 30-5 34-7 11-1h139l3 9 1 8-63 1-10 13-14 19-8 10-49-14-27-7-2 4-42 42-7-1-50-25-5 1-17 12-16 11-17 12-3 2-5-1-24-16-15-11-12-8-8-5-10 4-29 14-18 8-5 1-16-15-8-7-14-13-8-7-1-1-8 1-53 18-11 3-12-19-9-15-10-17-11 1-45 7h-2v-7l3-10z" fill="#E79D16"/>
<path transform="translate(1120,172)" d="m0 0 4 1 1 1-1 8-8 16-10 17-1 3h-2l-2 6-5 11-2 5-1 14 2 3 7-1 11-10 5-2 2-9 5-7h2l2-4h2l2-4 4-1v-2l9-5 6-2h9l4 5v5l-6 9-11 8-17 8 1 5 2 5h8l10-4 9-7 7-6-1-4-2-3 1-10h2l1-6 3-3 4-5 3-2h3v7h8l4-2h10l2 6v6l-4 6-7 9-4 8v6h7l6-3h2v-2l4-2h3l1-9 8-14 5-5 6-5 7-1 3 1v7l-5 8-6 8-7 8-1 2v7l2 3h9l7-4 8-7 4-8 8-8 8-7 4-1v-2l16-8 8-3 7 1 2 9-3 2 2 6-1 6-7 10-2 4v6l4 4 7-3 8-6h3l-2 5-7 8-8 8-7 5h-6l-4-3v-9l2-8 2-6-5 4-9 11-11 10-5-2-5-8-3-8h-3l-2 4-7 7-10 6h-7l-6-7-2-6-1-7-7 6-11 11-4 3h-6l-4-4-1-2v-11l5-12 7-9 2-3-12 2-5 3-9 12-7 8-9 9-8 5-5 2h-11l-5-5-3-4-2-9h-3l-2 4-7 8-8 7-4 3h-6l-3-5-1-10 2-13-7 6-7 8-9 8-1 2-5-1-4-5-4-10v-2l-5 3-9 10-9 6-7 1-3-2v-15l3-9h-2l-2 4-15 16-4 4h-5l-6-8-3-9-5 3-11 10-6 4h-7l-3-4v-9l12-24-10 9-7 7-10 13-3 4h-6l-3-11-7 6-7 7-8 4-7-1-1-2v-10l4-13-5 4-14 16-5 4-5-1-6-8-3-10 1-9 6-9 14-13h3v-2h3v-2l13-6 8-3 7 1 2 4-1 5-2 4 2 4-1 5-8 13-1 2v7l5 3 11-6 4-12 5-9h2v-3l8-8 7-1 3 3-1 4-12 16-3 5-1 5 4-1 10-13 8-9h2l2-4 10-8 4-3 5 1 2 7-1 7-6 7-7 10-2 5v6l4 1 12-8 5-10 8-8 3-4 3-1 5-5 10-6 13-5h9l3 4-1 5-4 4h2l1 9-7 10-2 4v8l3 3 5-2h3v-2l7-5h3v-6l3-6 4-5 7-6h2v-2l4-1v-2l14-7h6l5 4v2h2l3-9 8-17 4-5 5-9h2l1-3z" fill="#F7F6F5"/>
<path transform="translate(1179,205)" d="m0 0h3v7h8l4-2h10l2 6v6l-4 6-7 9-4 8v6h7l6-3h2v-2l4-2h3l1-9 8-14 5-5 6-5 7-1 3 1v7l-5 8-6 8-7 8-1 2v7l2 3h9l7-4 8-7 4-8 8-8 8-7 4-1v-2l16-8 8-3 7 1 2 9-3 2 2 6-1 6-7 10-2 4v6l4 4 7-3 8-6h3l-2 5-7 8-8 8-7 5h-6l-4-3v-9l2-8 2-6-5 4-9 11-11 10-5-2-5-8-3-8h-3l-2 4-7 7-10 6h-7l-6-7-2-6-1-7-7 6-11 11-4 3h-6l-4-4-1-2v-11l5-12 7-9 2-3-12 2-5 3-9 12-7 8-9 9-8 5-5 2h-11l-5-5-3-4-1-4 1-19 6-9h2l2-4h2l2-4 4-1v-2l9-5 6-2h9l4 5v5l-6 9-11 8-17 8 1 5 2 5h8l10-4 9-7 7-6-1-4-2-3 1-10h2l1-6 3-3 4-5z" fill="#F7F6F6"/>
<path transform="translate(812,161)" d="m0 0h26l7 2 6 2 8 5 6 9 2 6v18l-3 9-7 12-10 10-11 7-16 5-7 1-1 1h-26l-2 6-2 4-1 9-8 12-3 4h-5v-10l5-12 3-5 3-7 2-4h-2l-5-6v-6l6-7 11-5 7-2 2-5 7-12h2l2-5 6-9 1-3h2v-2h-8l-19 4-22 9-4 1v-4h2l2-8 4-6 2-5 4-4 9-3 13-3 2-1 9-1z" fill="#F7F7F6"/>
<path transform="translate(1127,474)" d="m0 0 8 1 8 4 7 7 4 9v9l-3 7-9 6-17 10-10 9-10 11-12 17-10 16-8 14-9 17-10 23-7 19-6 24-4 21-2 16h-1v-13l4-32 3-34 6-39 5-24 5-15 11-21 13-18 10-13 12-13 12-12z" fill="#D5D7D9"/>
<path transform="translate(906,471)" d="m0 0 9 1 11 7 14 14 9 11 10 13 11 16 10 17 5 14 6 27 7 49 6 59v8l-2-3-4-23-4-20-6-20-10-25-12-25-9-16-12-18-10-14-13-14-13-9-14-8-7-6-2-10 2-9 4-6 9-8z" fill="#D5D7D9"/>
<path transform="translate(852,1110)" d="m0 0h327v3l-7 1v3l-28 5-40 5-23 2-18 1h-78l-41-3-33-4-35-6-24-5z" fill="#342013"/>
<path transform="translate(906,206)" d="m0 0 7 1 2 4-1 5-2 4 2 4-1 5-8 13-1 2v7l5 3 11-6 4-12 5-9h2v-3l8-8 7-1 3 3-1 4-12 16-3 5-1 5 4-1 10-13 8-9h2l2-4 10-8 4-3 5 1 2 7-1 7-6 7-7 10-2 5v6l4 1 11-7h2l1 3-5 5-11 10-6 4h-7l-3-4v-9l12-24-10 9-7 7-10 13-3 4h-6l-3-11-7 6-7 7-8 4-7-1-1-2v-10l4-13-5 4-14 16-5 4-5-1-6-8-3-10 1-9 6-9 14-13h3v-2h3v-2l13-6z" fill="#F7F7F6"/>
<path transform="translate(755,957)" d="m0 0h11l4 6 3 9 5 17 7 22 13 39 5 17-1 2h-9l-4-8-8-25-1-1-42-1-2 9-8 25-4 2-6-1 1-7 10-33 9-28 7-23 6-18z" fill="#EBF3F5"/>
<path transform="translate(852,550)" d="m0 0 8 1 11 7 15 14 13 13 11 14 8 14 6 16 10 40 10 48 1 9-2-1-8-30-7-19-12-22-8-13-13-18-12-14-9-9-16-11-16-8-4-5-1-3v-8l5-9 7-5z" fill="#D5D7D9"/>
<path transform="translate(1186,547)" d="m0 0h6l8 5 6 7 1 2v11l-6 7-19 9-9 7-10 9-7 8-12 15-10 15-9 15-10 19-10 30-5 17-1-4 8-34 5-28 9-34 7-17 7-11 13-16 19-19 14-11z" fill="#D5D7D9"/>
<path transform="translate(1384,1102)" d="m0 0h95l13 1 9 4 1 3-3 3-18 5-21 5-16 4h-3v2l-13 2-37 9h-5l-15-5-4-4-2-6h-3l-5-5-4-2-1-9h2l1-3 7-1 12-2z" fill="#523619"/>
<path transform="translate(601,1105)" d="m0 0h71l11 2 7-1 5 2-3 7h-3l-1 4-2 5h-2l-2 10-5 7-4 2h-17l-27-6-12-2-13-4-16-3-10-3-7-1-9-3-5-2-4-3 2-4 3-3 7-2z" fill="#523619"/>
<path transform="translate(829,988)" d="m0 0 4 1v15l3-1 7-8 10-6h12l8 4 8 9v3h3l1-4 8-7 6-4 8-2 11 1 7 4 5 4 5 10 1 4 1 54-2 4h-7l-2-2-1-51-3-9-4-5-8-4h-8l-10 4-3 3-1 3h-2l-1 6-1 54-1 1h-8l-1-1-1-50-2-10-3-5-8-5h-8l-8 3-4 4-4 9-1 54-2 1h-7l-1-1-1-20 1-59z" fill="#EDF6F9"/>
<path transform="translate(1114,989)" d="m0 0h16l10 5 8 9 4 10 2 13-2 4-41 1h-13v7l3 10 7 8 9 4h23l8-1v6l-1 2-10 2h-20l-9-2-8-4-7-8-5-11-1-5v-14l3-13 4-8 9-10 5-3z" fill="#E9F1F3"/>
<path transform="translate(978,989)" d="m0 0h11l9 3 9 10 2 7 1 7v53h-8l-1-2-1-9h-2l-8 7-10 4h-9l-8-3-7-8-2-6v-8l4-9 7-8 9-4 16-3h9l-2-14-5-6-5-2h-17l-4 2h-5l-1-4 5-5z" fill="#EAF3F5"/>
<path transform="translate(1303,997)" d="m0 0h14l8 5 5 5 4 8 1 4v20l-4 10-7 8-8 4h-14l-8-5-8-9-3-9v-18l4-11 8-9z" fill="#654214"/>
<path transform="translate(1542,602)" d="m0 0h18l3 1-2 4-14 7-18 6h-3l4 4 12 7-1 3-21 11-20 9 1 4 11 8-1 3-16 9-11 7-10 2-17-1-9-3 2-4 3-3h2l2-4 7-5 18-6 11-2-1-5-5-7 2-4 13-10 9-4 8-3 3-5 2-7 10-9z" fill="#EEB055"/>
<path transform="translate(481,601)" d="m0 0 12 1 11 7 5 6 2 10 9 3 14 7 9 7 1 5-7 10 16 4 14 5 8 5 9 9v2l-14 3h-19l-12-6-20-11 1-3 11-8 3-4-6-2-24-11-14-7v-3l15-9h2v-2l-10-2-19-7-9-5v-3z" fill="#EEB055"/>
<path transform="translate(687,789)" d="m0 0h10l14 3 16 8 11 7 10 8v4l-14 6-8 2h-12l-16-4-21-9-26-13 2-2 27-9z" fill="#EEB055"/>
<path transform="translate(1333,790)" d="m0 0h16l30 10v2l-14 8-21 10-21 7-15 1-11-2-12-5-2-4 13-11 13-8 13-5z" fill="#EEB055"/>
<path transform="translate(1310,708)" d="m0 0 2 1 1 17v18l-4 15-7 14-8 11-9 10-8 8-4 3h-2l-1-5v-19l3-14 5-12 9-16 12-17 8-11z" fill="#EEB055"/>
<path transform="translate(1306,988)" d="m0 0 13 1 9 3 10 9 7 14 1 5v17l-3 10-6 9-7 7-7 4-9 2h-15l-10-4-6-5-8-13-2-9v-18l4-12 8-11 9-6zm-3 9-9 4-7 8-4 11v18l3 9 9 10 7 4h14l8-4 7-8 4-10v-20l-4-11-5-5-5-4-4-2z" fill="#E9F1F2"/>
<path transform="translate(721,708)" d="m0 0 4 2 14 19 10 16 8 16 4 15v22l-1 5-4-1-15-15-10-13-7-14-4-11-1-5v-19z" fill="#EEB055"/>
<path transform="translate(823,182)" d="m0 0h18l12 3 5 5 1 9-3 7-4 6-6 7h-2v2l-9 5-10 4-6 1h-21l-1-2 7-10 7-14 8-13 2-3z" fill="#372114"/>
<path transform="translate(665,666)" d="m0 0 5 4 11 14 13 19 8 16 3 9v9l-2 10-2 5-5-2-14-14-8-13-5-11-4-14-1-31z" fill="#EEB055"/>
<path transform="translate(1365,667)" d="m0 0h2l1 3v14l-3 23-5 13-9 15-11 12-6 6-4-1-2-7-1-16 5-13 8-15 11-16 10-13z" fill="#EEB055"/>
<path transform="translate(631,742)" d="m0 0h11l16 5 14 7 14 10 3 3v3l-12 5-4 1h-7l-15-3-17-6-31-15v-2l23-7z" fill="#EEB055"/>
<path transform="translate(1392,743)" d="m0 0h9l23 6 3 1-2 4-25 13-17 7-16 3h-7l-16-5v-4l7-7 10-7 15-7z" fill="#EEB055"/>
<path transform="translate(1178,966)" d="m0 0h6l1 1 1 21 19 1v7l-1 1h-19l1 53 3 7 3 2 12 1v8l-4 1h-12l-7-3-2-5h-2l-2-8-1-12v-44h-11v-9l11 1v-19z" fill="#E9F1F3"/>
<path transform="translate(1231,966)" d="m0 0h6l1 3v14l1 5 18 1v7l-1 1h-19l1 48 2 12 6 2 10 1 1 1v6l-4 2h-13l-6-3-6-8-1-8v-53h-11l-1-1v-7l2-1h9l1-18z" fill="#E9F1F3"/>
<path transform="translate(581,699)" d="m0 0h18l14 5 11 6 9 7 2 2-1 4-9 4-4 1h-15l-15-5-25-12-9-5v-2z" fill="#EEB055"/>
<path transform="translate(1434,700)" d="m0 0h19l21 5-4 4-31 16-12 4h-16l-13-4-2-4 9-8 13-8z" fill="#EEB055"/>
<path transform="translate(1416,631)" d="m0 0h1l1 8v11l-2 14-4 12-7 13-7 9-10 9h-4l-1-4v-17l4-13 7-14 10-14 9-11z" fill="#EEB055"/>
<path transform="translate(615,631)" d="m0 0 7 6 11 13 9 15 5 11 1 5v25h-3l-11-9-6-7-9-16-3-9-1-6z" fill="#EEB055"/>
<path transform="translate(1530,560)" d="m0 0h2l1 9-4 13-7 12-4 5-5 2-7-4-5 1-5 11-7 12-9 9-5 2-4-6 2-9 7-14 14-19 5-5h2l2 11 9-6 8-13 9-10z" fill="#EEB055"/>
<path transform="translate(501,559)" d="m0 0 7 6 6 8 7 11 5 4 3-3 3-7h2l7 9 11 15 7 15 1 3v7l-3 4-4-1-10-10-8-14-6-11-4 1-5 3-5-1-7-7-7-14-1-3v-14z" fill="#EEB055"/>
<path transform="translate(758,967)" d="m0 0 4 2 9 31 7 23v3h-37l2-9 6-20 3-9z" fill="#654216"/>
<path transform="translate(1115,996)" d="m0 0h12l7 3 6 7 3 9v8l-2 1h-40l-4-1 1-8 5-10 4-5z" fill="#6C481A"/>
<path transform="translate(987,1027)" d="m0 0h12l1 13-2 12-9 8-2 1h-16l-6-7-1-4v-8l4-8 8-5z" fill="#664315"/>
<path transform="translate(1068,988)" d="m0 0 4 1 1 9-14 4-7 8-2 5-1 8-1 45-2 1h-6l-2-1v-79h8l1 17 5-5 1-2h2l2-4 9-6z" fill="#EEF7FA"/>
<path transform="translate(571,599)" d="m0 0h2l10 13 9 12 5 10 2 12v15l-4-1-11-11-11-17-4-8v-11z" fill="#EEB055"/>
<path transform="translate(1459,601)" d="m0 0h2l2 18v6l-11 19-9 11-8 8-3 1v-10l3-18 6-12 11-15z" fill="#EEB055"/>
<path transform="translate(605,1179)" d="m0 0h3v50h-3v-2h2l-2-20-3-1v-2l-6 3-9 1-1 1h-5l-4-4-12-6-1-3 2-3 35-12z" fill="#513519"/>
<path transform="translate(1165,216)" d="m0 0 3 3v2h-2v10l3 4-1 4-10 9-10 6-6 2-8-1-4-6 1-5 17-8 11-8 5-8z" fill="#55341E"/>
<path transform="translate(1437,1176)" d="m0 0 36 13 6 4-2 3-8 3-2 1h-13l-7-2-3-5 2-4v-3l-5-2h-1l-1 9v29 3h-2z" fill="#523619"/>
<path transform="translate(1089,1045)" d="m0 0h2l1 3 4 2 2-1 2-3 6 8 8 5 3 1h23l8-1v6l-1 2-10 2h-20l-9-2-8-4-7-8-4-8z" fill="#E7EDEE"/>
<path transform="translate(903,221)" d="m0 0 3 1-10 14-11 12-9 6-5 2-3-3v-8l5-7 14-9z" fill="#502F1C"/>
<path transform="translate(1296,221)" d="m0 0h2l-2 4-8 11-11 12-9 6-5 2-3-3v-8l4-6 10-7 17-9z" fill="#4E2E1B"/>
<path transform="translate(1026,221)" d="m0 0h2l-2 5-10 13-10 10-7 5-7 1-2-7 3-7 8-7 12-7z" fill="#492918"/>
<path transform="translate(1246,229)" d="m0 0 3 1 2 4-1 2v4l2 1-6 7-8 6-3 1h-9l-3-4v-7l4-6 6-5 2 2 10-4z" fill="#4B2B19"/>
<path transform="translate(979,220)" d="m0 0 5 4 7 1v2l2 1-8 8-3 5-2 5-11 8-5 1-2-2v-6l4-8 12-16z" fill="#53321D"/>
<path transform="translate(1181,1108)" d="m0 0h12l2 3-8 3-10 2h-5v-2l7-2v-1h-328l-2-2z" fill="#4E3119"/>
<path transform="translate(1210,226)" d="m0 0h5l2 5-3 7-1 6-7 2v2l-8 4h-7l-1-1 1-9 6-9 5-6 2 3v-2z" fill="#51301C"/>
<path transform="translate(1089,224)" d="m0 0h2l-2 7-9 10-11 9-7 6-4-1v-9l4-8 14-8 8-4z" fill="#51301B"/>
<path transform="translate(1575,554)" d="m0 0h6l-2 5-8 11-8 8-9 4h-6l-1-4 7-10 7-7z" fill="#EEB055"/>
<path transform="translate(452,553)" d="m0 0 7 1 12 6 8 8 6 9v3h-9l-10-5-8-9-6-10z" fill="#EEB055"/>
<path transform="translate(1227,764)" d="m0 0 1 3-13 27-9 24-12 36-2 5-2-1 6-26 6-20 10-24 10-18z" fill="#EEB055"/>
<path transform="translate(913,227)" d="m0 0 3 3 7-3 2 5 2 1-4 8-3 8-12 6-5-4v-7l7-12z" fill="#50301C"/>
<path transform="translate(861,216)" d="m0 0 3 2 4-2h5l1 3 3 3-13 12-4 7-1 9v3h-2v-10l-4-2-3-6-4 1-2-1 10-9z" fill="#502F1B"/>
<path transform="translate(1185,228)" d="m0 0h8l-2 4-7 10-4 10-1 7-4-1-3 1-1 3-3-1v-8l3-8 1-4h-2l2-4 6-7z" fill="#4E2E1B"/>
<path transform="translate(809,182)" d="m0 0h9l-1 3h-2l-1 4-8 13-4-4h-10l-1-6-11 2-4 1-1-3 15-6z" fill="#51301C"/>
<path transform="translate(768,958)" d="m0 0 4 4 4 8 7 21 6 21 6 18 7 25v6l-2-2-3-9-15-44-10-34-3-9z" fill="#3A2315"/>
<path transform="translate(1254,165)" d="m0 0h10l1 5-8 10-12 11-6 1-1-3 4-10 2-3h2l1-4 2-3h2l1-3z" fill="#F5F3F2"/>
<path transform="translate(1032,233)" d="m0 0 2 1 3-1h3l5 5 3 2v5l-7 4-3 1v2l-8 3-4-4v-8z" fill="#4E2E1B"/>
<path transform="translate(805,766)" d="m0 0 3 1 9 15 8 17 7 20 7 25 1 9-3-3-10-32-11-28-10-19z" fill="#EEB055"/>
<path transform="translate(1493,1201)" d="m0 0 9 1 1 2-45 16-8 3h-3l1-3 8-3 4-4 9-3 17-5z" fill="#5F4123"/>
<path transform="translate(1026,221)" d="m0 0h2l-2 5-10 13-6-3v-3l-5 3h-2l-1 3h-2l-2 4-2 1-3 3-1 7-2-4 2-8 9-8 12-7z" fill="#5D3D1F"/>
<path transform="translate(1280,1032)" d="m0 0h2l5 15 8 9v2l-3 2-6-1-3-3-4-2-2-10z" fill="#F8F9F9"/>
<path transform="translate(989,312)" d="m0 0h50v2h12l15 2 4 2-12-1-27-2h-41l-19 2-12 3h-5l4-2 16-4z" fill="#C4B3A1"/>
<path transform="translate(1096,232)" d="m0 0h1l1 5h3l2-5 5 2-2 5-2 4h-2l-2 11-1 1 3 2-7 1-3-4 1-14z" fill="#54321D"/>
<path transform="translate(1303,231)" d="m0 0 1 3 3 7 1 8 1 2-8 4-5-3-1-2v-6l7-12z" fill="#54331D"/>
<path transform="translate(1038,989)" d="m0 0h8v1l-6 1v67l1 8 6 1v-44h1v45l-2 1h-6l-2-1z" fill="#D5D7D9"/>
<path transform="translate(1150,220)" d="m0 0 5 1-2 5-5 6-11 7-6 1 2-6 8-9z" fill="#5B3821"/>
<path transform="translate(873,1011)" d="m0 0 2 4v47l7 1v-24l1-25h1v54l-1 1h-8l-1-1z" fill="#D5D7D9"/>
<path transform="translate(961,231)" d="m0 0 1 2-9 16-3 7-1 7h-1l-2-10h-2l-5 6-4 1 2-4 9-11 12-12z" fill="#58361F"/>
<path transform="translate(825,989)" d="m0 0 4 1h-3v76l7 1v-27l1-24h1v52l-2 1h-7l-1-1-1-20z" fill="#D5D7D9"/>
<path transform="translate(758,967)" d="m0 0 4 2 4 14v6h-10l-4 1 4-17z" fill="#462D1A"/>
<path transform="translate(894,245)" d="m0 0h2l-1 6-2 7v12h9v2h-8l-4-2-3-3v-3l-6-1-1 2-3-1 12-13z" fill="#5A381E"/>
<path transform="translate(1286,245)" d="m0 0h2l-1 6-2 8v9l4 4-7-2-5-5-2-3-3 3-3-1 12-13z" fill="#57361E"/>
<path transform="translate(903,221)" d="m0 0 3 1-10 14-4 4v-2l-4 1v-2l-2-1-3-2-1-2 17-9z" fill="#5A3B1D"/>
<path transform="translate(1303,997)" d="m0 0h14l8 5 5 5 3 5v9h-1l-2-7-7-10-4-2-10-1v-2h-2v2l-7 2-8 5-2-1 7-8z" fill="#56391E"/>
<path transform="translate(1296,221)" d="m0 0h2l-2 4-8 11-4 4v-2l-4-1-2-5-2-1 15-8z" fill="#5B3C1D"/>
<path transform="translate(934,1007)" d="m0 0 2 4 1 54-2 4h-7l-2-2-1-55 2 3 1 43 1 7 6 2z" fill="#D4D5D6"/>
<path transform="translate(949,226)" d="m0 0h4l-2 4-10 11-5 7h-4l1-7 8-11 4 1 1-3z" fill="#5A3820"/>
<path transform="translate(1185,228)" d="m0 0h8l-2 4-7 10-6-3-2-3-3 3-2-1 7-8z" fill="#583A1C"/>
<path transform="translate(1067,239)" d="m0 0 1 2h3v7l-9 8-4-1v-9l5-4z" fill="#4F2F1B"/>
<path transform="translate(852,997)" d="m0 0h8l9 6 1 4-6-4-1-1h-15v2l-7 6-2 3h-2l1-5 3-5 5-4z" fill="#4E341E"/>
<path transform="translate(1154,1024)" d="m0 0h1v5l-3 3-4 1h-26l-21-1v-1l15-1 36-1z" fill="#AD7E4F"/>
<path transform="translate(1342,1048)" d="m0 0h2l-1 6-10 11-9 5-4 1h-8v-2l13-4 8-6 7-8z" fill="#4A301B"/>
<path transform="translate(1016,245)" d="m0 0h2v5l-2 4v16h-2l-1-3-3-2v-2h-2v-5l-2-1 9-10z" fill="#5F3C23"/>
<path transform="translate(1326,991)" d="m0 0 6 1 4 2 7 8 4 7 1 5v9l-2 2-3-13-6-11-9-8z" fill="#382214"/>
<path transform="translate(979,220)" d="m0 0 5 4 7 1v2l2 1-10 10-1-5h-3l-1-6z" fill="#53311D"/>
<path transform="translate(1133,243)" d="m0 0h5l1 4-1 2 5 1v3l2 1-4 1h-7l-4-6 1-5z" fill="#3C2517"/>
<path transform="translate(902,997)" d="m0 0h8l8 4 5 6-1 3-3-5-5-3h-15l-8 5-2-1 5-6z" fill="#412918"/>
<path transform="translate(1083,245)" d="m0 0h2l-1 18 1 7h-2v-3h-2l-2-7v-5l-2-1 1-4z" fill="#4E2E1A"/>
<path transform="translate(1181,1108)" d="m0 0h12l2 3-8 3-10 2h-5v-2l7-2-2-3z" fill="#543718"/>
<path transform="translate(707,766)" d="m0 0 4 1 6 12-12-2-2-1 2-6z" fill="#3E2613"/>
<path transform="translate(1272,1041)" d="m0 0h2l3 8 7 11 9 6 6 2 7 1v2l-11-1-10-6-9-10-4-8z" fill="#331E13"/>
<path transform="translate(1116,250)" d="m0 0 2 1 3 11 3 4-10-2 1-7-5 3-7 7-2-1 9-9 4-6z" fill="#593720"/>
<path transform="translate(961,231)" d="m0 0 1 2-9 16-2 3-1-6v-2l-4 4-2-1 14-14z" fill="#674522"/>
<path transform="translate(921,253)" d="m0 0 2 1 2 10-11 1h-2-3z" fill="#613E24"/>
<path transform="translate(1321,767)" d="m0 0 4 2 3 4-1 4-7 2h-5l2-5 3-5z" fill="#3A2313"/>
<path transform="translate(999,1056)" d="m0 0 2 2 1 12h-5l-3-3h-3l2-4z" fill="#432A18"/>
<path transform="translate(1086,1035)" d="m0 0 2 4 3 10 6 10 8 6 9 3v2l-7-1-9-6-6-6-4-8v-2h-2z" fill="#362013"/>
<path transform="translate(1095,1032)" d="m0 0h2l2 11v6l-3 1-1 2-2-3v-9l1-7z" fill="#F8F9F9"/>
<path transform="translate(1493,1201)" d="m0 0 9 1 1 2-17 6h-2l1-4z" fill="#5F4225"/>
<path transform="translate(1303,997)" d="m0 0h12l1 2h-9v2l-7 2-8 5-2-1 7-8z" fill="#3D2515"/>
<path transform="translate(832,987)" d="m0 0h4l1 8 3 2-2 4-2 3h-3z" fill="#3C2515"/>
<path transform="translate(1193,1058)" d="m0 0h14l1 1v8l-1 3h-5l2-10h-11z" fill="#3F2718"/>
<path transform="translate(1244,1058)" d="m0 0h16l1 1v7l-1 3h-5l1-2v-6l-10-1z" fill="#372113"/>
<path transform="translate(923,990)" d="m0 0 4 1v2l4 2 5 6 2 7v6h-2l-4-12-4-6-5-4z" fill="#392315"/>
<path transform="translate(763,976)" d="m0 0 2 4 1 6h-7l-3-2 1-6h6z" fill="#69461B"/>
<path transform="translate(1728,567)" d="m0 0h2l-2 6-7 10-4 6h-2l-1 3-1-3 11-16z" fill="#583917"/>
<path transform="translate(1716,466)" d="m0 0h2l-1 6-7 15-4 7-1-3z" fill="#593A17"/>
<path transform="translate(1185,228)" d="m0 0h8l-2 4-5 7-2-4v-4h-6l3-2z" fill="#7A5324"/>
<path transform="translate(810,217)" d="m0 0h6v3l-8 1v6h-3l-1-2-4-1 4-5z" fill="#A38A72"/>
<path transform="translate(1e3 235)" d="m0 0 3 1-1 3h-2l-2 4-2 1-3 3-1 7-2-4 2-8z" fill="#513519"/>
<path transform="translate(1248,240)" d="m0 0 2 1-1 4-10 8-1-2 6-10z" fill="#372113"/>
<path transform="translate(1047,990)" d="m0 0 2 1 3 6 2 2-5 7h-2z" fill="#331F13"/>
<path transform="translate(1174,1052)" d="m0 0 2 1 1 8h2l2 5 9 3v1h-7l-5-5-2-4h-2l-1-8z" fill="#452C19"/>
<path transform="translate(1249,251)" d="m0 0 3 3v2h-2v2l-4 1v5h-2l-1-2-3-2 7-8z" fill="#5E3C23"/>
<path transform="translate(750,956)" d="m0 0 4 1-4 8-5 16-2 2 2-11 3-8z" fill="#351F13"/>
<path transform="translate(980,251)" d="m0 0 2 1 1 6-4 1-6 2-1-3z" fill="#603E25"/>
<path transform="translate(987,1027)" d="m0 0h12l1 13-1 5-3-1 1-5-1-6 1-4-10-1z" fill="#AD7E4F"/>
<path transform="translate(879,997)" d="m0 0h10l-2 4h-2l-1 4h-3l-2-6z" fill="#492F1A"/>
<path transform="translate(1048,990)" d="m0 0 5 1 7 1-5 7-5-3z" fill="#503419"/>
<path transform="translate(754,981)" d="m0 0h2l1 3 9 2v3h-10l-4 1z" fill="#51341C"/>
<path transform="translate(1192,243)" d="m0 0 1 3 9 2-4 4h-7z" fill="#432A18"/>
<path transform="translate(1162,1116)" d="m0 0h10v1l-22 4h-5l3-2 7-2z" fill="#573715"/>
<path transform="translate(1112,997)" d="m0 0h7l-4 3-5 1-2 4h-2v2l-3 1 1-4 5-5z" fill="#50341C"/>
<path transform="translate(1016,245)" d="m0 0h2v5l-3 7h-2l-1 2v-3h-2l2-4z" fill="#53361E"/>
<path transform="translate(1295 1e3)" d="m0 0 2 1-6 6 4-1-6 8-3 1 1-6z" fill="#573A1F"/>
<path transform="translate(1116,250)" d="m0 0 2 1v3l-9 7-6 6-2-1 9-9 4-6z" fill="#684729"/>
<path transform="translate(903,221)" d="m0 0 3 1-6 9-5-5 4-3z" fill="#634123"/>
<path transform="translate(358,417)" d="m0 0h16l-2 4-5 2-1-3-8-2z" fill="#4E3219"/>
<path transform="translate(1042,242)" d="m0 0 3 1-1 4-6 4-3-1 3-6z" fill="#341F13"/>
<path transform="translate(1137,232)" d="m0 0 5 2-5 5-6 1 2-5z" fill="#492E1A"/>
<path transform="translate(547,1206)" d="m0 0 5 2 8 1v2l5 1-1 2-6-1-10-4z" fill="#66492D"/>
<path transform="translate(1179,1110)" d="m0 0h7l2 2-6 1v2l-10 1v-2l7-2z" fill="#4F2E16"/>
<path transform="translate(1212,988)" d="m0 0h3v9h-5v-8z" fill="#321E13"/>
<path transform="translate(1068,239)" d="m0 0h6l1 1h5l-5 5-4 2-1-4 1-2h-3z" fill="#5C3D1E"/>
<path transform="translate(975,987)" d="m0 0h8v1l-18 4-5 3v-4l9-3z" fill="#352013"/>
<path transform="translate(1083,245)" d="m0 0h2l-1 21-2-2v-12l-4-2z" fill="#7A542E"/>
<path transform="translate(829,224)" d="m0 0 1 2 4 1-9 3h-5l1-4 7-1z" fill="#634026"/>
<path transform="translate(1e3 998)" d="m0 0 4 2 2 5v10l-2-3-3-10z" fill="#462C17"/>
<path transform="translate(1315,997)" d="m0 0 6 2 4 4-6-1-10-1v-2l6-1z" fill="#4F331B"/>
<path transform="translate(1299,1058)" d="m0 0 18 1-1 2h-14z" fill="#5B3C1D"/>
<path transform="translate(742,1022)" d="m0 0h2v2h21v1l-24 1z" fill="#56381A"/>
<path transform="translate(877,235)" d="m0 0 3 1v2l-2 1-1 3-6 2-1-2 5-5z" fill="#5E3E1E"/>
<path transform="translate(1067,235)" d="m0 0 2 3-6 5-4 2 2-6z" fill="#634321"/>
<path transform="translate(977,225)" d="m0 0 2 3v5l-3 1h-4v-3z" fill="#654423"/>
<path transform="translate(836,988)" d="m0 0 4 2 2 7h-3l-3-2z" fill="#523519"/>
<path transform="translate(1192,734)" d="m0 0h1l1 8 2 1-2 5-4 1v-3z" fill="#EEF8FB"/>
<path transform="translate(848,987)" d="m0 0h15v1l-12 3h-3z" fill="#4B3018"/>
<path transform="translate(1296,221)" d="m0 0h2l-2 4-4 6-3-1v-2l3-3-1-2z" fill="#6D4A24"/>
<path transform="translate(998,236)" d="m0 0 2 1-6 6-2 11-2-4 2-8z" fill="#74502C"/>
<path transform="translate(1099,1061)" d="m0 0 5 1 8 4 5 1v1h-7l-10-5z" fill="#CABFB4"/>
<path transform="translate(961,231)" d="m0 0 1 2-3 6-7 1 6-7z" fill="#714D25"/>
<path transform="translate(841,183)" d="m0 0 9 1-3 1v2l-5 2z" fill="#56341C"/>
<path transform="translate(844 1e3)" d="m0 0 2 1-7 8h-2l1-5 3-3z" fill="#472D17"/>
<path transform="translate(1272,1041)" d="m0 0h2l3 8 2 4-3 1-4-8z" fill="#402918"/>
<path transform="translate(892 1e3)" d="m0 0 2 1-3 4 4-2-3 5-5 1 2-6z" fill="#593C21"/>
<path transform="translate(1160,987)" d="m0 0h2v10l-3-1v-8z" fill="#321E13"/>
<path transform="translate(654,725)" d="m0 0 4 1 2 5-5-1-2-1z" fill="#EEB055"/>
<path transform="translate(1268,236)" d="m0 0v3l-6 7-1 7h-1v-8l4-6z" fill="#805A31"/>
<path transform="translate(1010,229)" d="m0 0 2 1-5 5-2 1-4-2z" fill="#664524"/>
<path transform="translate(1347,1031)" d="m0 0h1v9l-3 6-1-4z" fill="#3C2414"/>
<path transform="translate(1504,1107)" d="m0 0 9 1-1 3h-5l-4-3z" fill="#52361A"/>
<path transform="translate(799,1048)" d="m0 0 2 4 1 9-2-2-2-4z" fill="#492D1A"/>
<path transform="translate(747,968)" d="m0 0h1l-1 8-3 7-1-3 3-11z" fill="#402817"/>
<path transform="translate(1189,875)" d="m0 0h2l2 5-3 4h-2z" fill="#EEB055"/>
<path transform="translate(1401,782)" d="m0 0 2 1-2 2 2 2h-10v-2z" fill="#523414"/>
<path transform="translate(1089,224)" d="m0 0h2l-2 7h-3l-2-5z" fill="#573A21"/>
</svg>
